<mxfile host="app.diagrams.net" modified="2021-10-05T08:49:02.201Z" agent="5.0 (Windows NT 10.0; Win64; x64) AppleWebKit/537.36 (KHTML, like Gecko) Chrome/92.0.4515.159 Safari/537.36 Edg/92.0.902.84" etag="jZn17h3Ho-IIBLW7-7fS" version="15.4.1" type="github">
  <diagram id="f9aTfrhSnxVtAWuv7xtd" name="Page-1">
    <mxGraphModel dx="1278" dy="748" grid="1" gridSize="10" guides="1" tooltips="1" connect="1" arrows="1" fold="1" page="1" pageScale="1" pageWidth="827" pageHeight="1169" math="0" shadow="0">
      <root>
        <mxCell id="0" />
        <mxCell id="1" parent="0" />
        <mxCell id="2pgzQu3OoXiDBFnYdLVG-1" value="2" style="rounded=0;whiteSpace=wrap;html=1;strokeWidth=2;perimeterSpacing=4;fontSize=20;" vertex="1" parent="1">
          <mxGeometry x="50" y="380" width="120" height="60" as="geometry" />
        </mxCell>
        <mxCell id="2pgzQu3OoXiDBFnYdLVG-2" value="1" style="rounded=0;whiteSpace=wrap;html=1;strokeWidth=2;perimeterSpacing=4;fontSize=20;" vertex="1" parent="1">
          <mxGeometry x="50" y="294" width="120" height="60" as="geometry" />
        </mxCell>
        <mxCell id="2pgzQu3OoXiDBFnYdLVG-3" value="&lt;font style=&quot;font-size: 20px&quot;&gt;+&lt;/font&gt;" style="whiteSpace=wrap;html=1;fillColor=#fff2cc;strokeColor=#d6b656;strokeWidth=2;perimeterSpacing=4;fontSize=20;" vertex="1" parent="1">
          <mxGeometry x="150" y="190" width="120" height="60" as="geometry" />
        </mxCell>
        <mxCell id="2pgzQu3OoXiDBFnYdLVG-4" value="2+1" style="rounded=0;whiteSpace=wrap;html=1;strokeWidth=2;perimeterSpacing=4;fontSize=20;" vertex="1" parent="1">
          <mxGeometry x="270" y="380" width="120" height="60" as="geometry" />
        </mxCell>
        <mxCell id="2pgzQu3OoXiDBFnYdLVG-5" value="3" style="rounded=0;whiteSpace=wrap;html=1;strokeWidth=2;perimeterSpacing=4;fontSize=20;" vertex="1" parent="1">
          <mxGeometry x="270" y="294" width="120" height="60" as="geometry" />
        </mxCell>
        <mxCell id="2pgzQu3OoXiDBFnYdLVG-6" value="&lt;font style=&quot;font-size: 20px&quot;&gt;*&lt;/font&gt;" style="whiteSpace=wrap;html=1;fillColor=#fff2cc;strokeColor=#d6b656;strokeWidth=2;perimeterSpacing=4;fontSize=20;" vertex="1" parent="1">
          <mxGeometry x="370" y="190" width="120" height="60" as="geometry" />
        </mxCell>
        <mxCell id="2pgzQu3OoXiDBFnYdLVG-7" value="（2+1）*3" style="rounded=0;whiteSpace=wrap;html=1;strokeWidth=2;perimeterSpacing=4;fontSize=20;" vertex="1" parent="1">
          <mxGeometry x="520" y="380" width="120" height="60" as="geometry" />
        </mxCell>
        <mxCell id="2pgzQu3OoXiDBFnYdLVG-11" value="4" style="rounded=0;whiteSpace=wrap;html=1;strokeWidth=2;perimeterSpacing=4;fontSize=20;" vertex="1" parent="1">
          <mxGeometry x="100" y="806" width="120" height="60" as="geometry" />
        </mxCell>
        <mxCell id="2pgzQu3OoXiDBFnYdLVG-12" value="13" style="rounded=0;whiteSpace=wrap;html=1;strokeWidth=2;perimeterSpacing=4;fontSize=20;" vertex="1" parent="1">
          <mxGeometry x="100" y="720" width="120" height="60" as="geometry" />
        </mxCell>
        <mxCell id="2pgzQu3OoXiDBFnYdLVG-13" value="5" style="rounded=0;whiteSpace=wrap;html=1;strokeWidth=2;perimeterSpacing=4;fontSize=20;" vertex="1" parent="1">
          <mxGeometry x="100" y="630" width="120" height="60" as="geometry" />
        </mxCell>
        <mxCell id="2pgzQu3OoXiDBFnYdLVG-14" value="&lt;font style=&quot;font-size: 20px&quot;&gt;/&lt;/font&gt;" style="whiteSpace=wrap;html=1;fillColor=#fff2cc;strokeColor=#d6b656;strokeWidth=2;perimeterSpacing=4;fontSize=20;" vertex="1" parent="1">
          <mxGeometry x="230" y="550" width="120" height="60" as="geometry" />
        </mxCell>
        <mxCell id="2pgzQu3OoXiDBFnYdLVG-15" value="4" style="rounded=0;whiteSpace=wrap;html=1;strokeWidth=2;perimeterSpacing=4;fontSize=20;" vertex="1" parent="1">
          <mxGeometry x="330" y="806" width="120" height="60" as="geometry" />
        </mxCell>
        <mxCell id="2pgzQu3OoXiDBFnYdLVG-16" value="13/5" style="rounded=0;whiteSpace=wrap;html=1;strokeWidth=2;perimeterSpacing=4;fontSize=20;" vertex="1" parent="1">
          <mxGeometry x="330" y="720" width="120" height="60" as="geometry" />
        </mxCell>
        <mxCell id="2pgzQu3OoXiDBFnYdLVG-17" value="&lt;font style=&quot;font-size: 20px&quot;&gt;+&lt;/font&gt;" style="whiteSpace=wrap;html=1;fillColor=#fff2cc;strokeColor=#d6b656;strokeWidth=2;perimeterSpacing=4;fontSize=20;" vertex="1" parent="1">
          <mxGeometry x="430" y="640" width="120" height="60" as="geometry" />
        </mxCell>
        <mxCell id="2pgzQu3OoXiDBFnYdLVG-18" value="4+（13/5）" style="rounded=0;whiteSpace=wrap;html=1;strokeWidth=2;perimeterSpacing=4;fontSize=20;" vertex="1" parent="1">
          <mxGeometry x="550" y="806" width="120" height="60" as="geometry" />
        </mxCell>
      </root>
    </mxGraphModel>
  </diagram>
</mxfile>
